<svg width="273" height="53" viewBox="0 0 273 53" fill="none" xmlns="http://www.w3.org/2000/svg">
<path d="M64.7036 31.304C61.6636 31.304 55.0516 30.43 56.1536 26.364C56.6096 24.578 58.6996 23.666 60.2576 23.666C64.3236 23.666 61.2076 29.29 65.4636 29.29C67.1736 29.29 68.9216 28.074 69.2256 26.896C70.1756 23.362 58.1676 23.058 59.8016 16.978C60.9796 12.608 67.4016 11.506 70.7836 11.506C81.1576 11.506 79.7896 18.802 74.3936 18.802C70.3656 18.802 74.1656 13.482 70.0616 13.482C68.6176 13.482 66.6796 14.318 66.3756 15.42C65.7296 17.776 78.1936 19.828 76.5596 25.908C75.3816 30.316 68.0096 31.304 64.7036 31.304ZM89.7893 25.87C90.0933 25.794 90.3213 25.984 90.2453 26.288C89.1053 29.67 85.6093 31.228 82.7593 31.228C80.1753 31.228 78.1233 29.936 78.8453 27.58C79.6053 25.3 84.3553 16.522 80.3273 15.952C79.0733 15.762 79.4153 13.938 80.8973 13.634C81.8853 13.406 85.2293 12.152 87.4333 12.152C88.8013 12.152 89.7513 12.646 89.4093 14.242C90.8533 12.912 92.9433 11.658 95.1853 11.658C99.1753 11.658 100.619 13.216 100.923 15.42C102.519 13.254 104.913 11.658 107.953 11.658C112.627 11.658 113.805 13.786 113.805 16.636C113.805 19.676 110.955 25.984 114.261 25.984C114.527 25.984 114.831 25.946 115.173 25.87C115.477 25.794 115.705 25.984 115.629 26.288C114.489 29.67 110.993 31.228 108.143 31.228C105.559 31.228 103.507 29.936 104.229 27.58C105.027 25.224 110.005 14.85 105.369 14.85C100.087 14.85 97.9593 27.086 102.747 25.87C103.051 25.794 103.279 25.984 103.165 26.288C102.063 29.67 98.5673 31.228 95.7173 31.228C93.1333 31.228 91.0813 29.936 91.8033 27.58C92.6013 25.224 97.4653 14.812 92.6013 14.812C87.7373 14.812 84.8493 27.124 89.7893 25.87ZM128.995 11.582C131.997 11.582 132.073 12.874 134.125 12.874C134.999 12.874 136.253 12.646 138.267 11.924C138.875 11.734 139.939 12.266 139.635 13.102C138.913 15.268 132.263 27.352 138.267 25.946C138.533 25.87 138.799 26.06 138.685 26.364C137.697 29.404 134.505 31.418 131.921 31.418C130.515 31.418 129.299 30.81 128.691 29.442C127.361 30.544 125.651 31.228 123.485 31.228C117.671 31.228 115.201 26.668 116.607 21.538C117.975 16.332 123.105 11.582 128.995 11.582ZM130.097 14.926C125.537 14.926 121.927 27.96 126.449 27.96C130.173 27.96 133.441 14.926 130.097 14.926ZM154.544 16.75C151.01 16.75 148.882 20.854 148.882 23.514C148.882 25.148 149.68 26.326 151.504 25.87C151.808 25.794 152.036 25.984 151.96 26.288C150.82 29.67 147.324 31.228 144.474 31.228C141.89 31.228 139.838 29.936 140.56 27.58C141.244 25.49 145.652 16.484 142.004 15.952C140.75 15.762 141.092 13.938 142.574 13.634L149.756 12.114C150.06 12.038 150.744 11.924 151.314 11.924C152.036 11.924 152.644 12.114 152.34 12.836C151.884 13.786 151.428 14.926 151.01 16.142C154.24 13.064 156.064 11.468 158.648 11.468C162.714 11.468 162.106 17.928 157.47 17.928C156.178 17.928 155.798 16.75 154.544 16.75ZM163.917 14.394H161.865C160.345 14.394 160.953 11.924 162.549 11.924H164.981C167.223 11.924 171.061 11.202 171.897 8.428C172.087 7.744 172.695 7.402 173.227 7.402C173.797 7.402 174.253 7.782 174.063 8.504C173.721 9.834 173.455 10.822 173.227 11.62C173.151 11.962 173.493 12.076 174.025 12.076C174.633 12.076 175.507 11.924 176.153 11.924C177.749 11.924 177.027 14.394 175.507 14.394H173.227C171.023 14.394 167.147 27.048 170.073 27.048C170.643 27.048 171.859 26.668 172.733 26.06C172.961 25.908 173.189 25.832 173.379 25.832C174.177 25.832 174.405 27.2 173.607 27.922C171.669 29.632 167.793 31.304 164.829 31.304C161.941 31.304 159.889 29.784 161.067 25.376C162.359 20.474 166.653 14.394 163.917 14.394ZM184.935 31.038C183.833 30.962 184.289 29.366 185.581 28.568L186.493 27.998C188.545 26.706 191.281 19.03 192.193 13.444C192.307 12.95 192.345 12.494 192.421 12C192.687 8.618 191.129 6.642 189.381 6.642C179.957 6.642 176.005 19.79 181.401 19.79C182.845 19.79 182.959 17.738 183.225 16.75C183.871 14.28 185.733 13.102 187.177 13.102C188.583 13.102 189.685 14.166 189.115 16.218C188.203 19.676 184.213 21.386 180.869 21.386C168.481 21.386 169.317 4.704 189.191 4.666H203.821C204.923 4.742 204.505 6.3 203.175 7.136L202.263 7.706C200.819 8.618 199.071 12.494 197.817 16.598H208.989C209.977 12.532 210.395 8.694 209.369 7.706L208.761 7.136C207.887 6.3 208.305 4.704 209.445 4.666H221.263C222.365 4.742 221.909 6.3 220.617 7.136L219.705 7.706C216.551 9.72 211.953 25.756 214.271 27.998L214.879 28.568C215.715 29.366 215.335 30.962 214.195 31.038H202.377C201.275 30.962 201.731 29.366 203.023 28.568L203.935 27.998C205.341 27.086 207.089 23.172 208.343 18.954H197.171C196.145 23.096 195.765 26.972 196.829 27.998L197.437 28.568C198.311 29.366 197.893 30.962 196.753 31.038H184.935ZM222.753 6.794C223.437 4.21 226.325 2.842 228.301 2.842C230.277 2.842 232.443 4.21 231.721 6.794C231.037 9.378 228.187 10.746 226.211 10.746C224.197 10.746 222.069 9.378 222.753 6.794ZM228.415 25.87C228.719 25.794 228.947 25.984 228.833 26.288C227.693 29.67 224.235 31.228 221.385 31.228C218.801 31.228 216.711 29.936 217.471 27.58C218.003 26.022 223.741 16.522 219.713 15.952C218.459 15.762 218.801 13.938 220.283 13.634L227.465 12.114C227.807 12.038 228.377 11.886 228.909 11.886C229.517 11.886 230.049 12.076 230.049 12.836C230.049 15.458 223.095 26.022 227.427 26.022C227.693 26.022 228.035 25.984 228.415 25.87ZM241.596 14.318C241.482 14.774 239.202 24.046 241.178 24.046C241.482 24.046 241.9 23.818 242.432 23.286C245.244 20.056 247.182 16.522 244.484 14.85C243.496 14.242 243.876 12.988 244.788 12.532C245.434 12.228 247.448 11.772 249.082 11.772C250.412 11.772 251.514 12.076 251.514 12.912C251.514 16.142 240.304 31.228 236.58 31.228C235.972 31.228 235.44 31.152 235.022 31C234.946 31 234.908 31 234.908 30.962C233.654 30.506 233.388 29.328 233.958 27.58C234.718 25.376 236.542 16.598 231.868 15.952C230.576 15.762 230.994 14.128 232.476 13.634C234.49 12.95 237.568 11.886 239.582 11.886C241.14 11.886 242.09 12.494 241.596 14.318ZM250.427 21.576C252.175 15.04 259.205 11.696 265.209 11.696C268.287 11.696 272.581 13.026 271.555 16.826C270.643 20.284 265.855 21.728 262.207 21.728C260.877 21.728 259.737 21.538 258.939 21.196C258.483 24.084 259.433 26.668 263.347 26.668C264.639 26.668 265.931 26.478 267.109 25.642C267.527 25.376 267.907 25.224 268.173 25.224C268.857 25.224 269.123 25.87 268.629 26.554C266.235 29.86 262.283 31.456 258.673 31.456C253.353 31.456 248.679 28.036 250.427 21.576ZM259.433 19.41C261.485 19.866 265.209 17.32 265.741 15.344C266.007 14.356 265.399 13.596 264.449 13.596C262.739 13.596 260.459 16.408 259.433 19.41Z" fill="#F2B617"/>
<path d="M62.66 44.62C63.2067 44.62 63.63 44.5433 63.93 44.39C64.23 44.2367 64.38 44.0133 64.38 43.72C64.38 43.46 64.29 43.2367 64.11 43.05C63.93 42.8567 63.7067 42.6933 63.44 42.56C63.1733 42.4267 62.81 42.27 62.35 42.09C62.31 42.0767 62.2133 42.04 62.06 41.98C61.4333 41.7267 60.95 41.4733 60.61 41.22C60.2767 40.9667 60.11 40.64 60.11 40.24C60.11 39.7933 60.2867 39.4567 60.64 39.23C60.9933 39.0033 61.4467 38.89 62 38.89C62.4067 38.89 62.78 38.9433 63.12 39.05C63.4667 39.15 63.74 39.29 63.94 39.47C64.1467 39.65 64.25 39.8533 64.25 40.08C64.17 40.12 64.0933 40.14 64.02 40.14C63.94 40.14 63.8567 40.1233 63.77 40.09C63.69 40.05 63.57 39.9867 63.41 39.9C63.15 39.76 62.9067 39.65 62.68 39.57C62.4533 39.4833 62.1867 39.44 61.88 39.44C61.4933 39.44 61.18 39.5067 60.94 39.64C60.7 39.7733 60.58 39.96 60.58 40.2C60.58 40.3867 60.66 40.5567 60.82 40.71C60.9867 40.8633 61.1933 41 61.44 41.12C61.6933 41.2333 62.03 41.37 62.45 41.53C62.9833 41.7367 63.4233 41.93 63.77 42.11C64.1167 42.29 64.41 42.52 64.65 42.8C64.8967 43.0733 65.02 43.4 65.02 43.78C65.02 44.2267 64.8067 44.5733 64.38 44.82C63.9533 45.06 63.4233 45.18 62.79 45.18C62.29 45.18 61.7967 45.1067 61.31 44.96C60.8233 44.8133 60.4067 44.5967 60.06 44.31C59.7133 44.0167 59.4933 43.6667 59.4 43.26C59.4 43.08 59.45 42.9267 59.55 42.8C59.65 42.6667 59.7733 42.6 59.92 42.6C59.92 43.0333 60.04 43.4033 60.28 43.71C60.5267 44.01 60.8567 44.2367 61.27 44.39C61.69 44.5433 62.1533 44.62 62.66 44.62ZM72.306 45.01C72.206 45.01 72.146 44.9833 72.126 44.93C72.106 44.87 72.096 44.78 72.096 44.66C72.1027 44.6133 72.106 44.56 72.106 44.5C72.106 44.4333 72.1093 44.3833 72.116 44.35C72.156 44.03 72.176 43.7267 72.176 43.44C72.176 42.8067 72.0693 42.3133 71.856 41.96C71.6427 41.6 71.306 41.42 70.846 41.42C70.5927 41.42 70.3393 41.4833 70.086 41.61C69.8393 41.7367 69.636 41.8933 69.476 42.08C69.3227 42.2667 69.246 42.4367 69.246 42.59C69.2793 42.7833 69.3393 43.02 69.426 43.3C69.4327 43.3333 69.4593 43.4367 69.506 43.61C69.5593 43.7833 69.586 43.94 69.586 44.08L69.596 44.27C69.596 44.3767 69.5427 44.43 69.436 44.43C69.3027 44.43 69.1927 44.3433 69.106 44.17C69.026 43.9967 68.936 43.7267 68.836 43.36C68.736 43 68.6393 42.7033 68.546 42.47C68.4527 42.2367 68.326 42.0367 68.166 41.87C68.006 41.7033 67.8027 41.62 67.556 41.62C67.216 41.62 66.9493 41.7367 66.756 41.97C66.5693 42.2033 66.476 42.49 66.476 42.83C66.476 43.0567 66.496 43.3567 66.536 43.73C66.5693 44.01 66.586 44.25 66.586 44.45C66.586 44.57 66.5727 44.66 66.546 44.72C66.5193 44.78 66.456 44.81 66.356 44.81C66.2227 44.81 66.1293 44.7667 66.076 44.68C66.0227 44.5867 65.996 44.4467 65.996 44.26C65.996 43.8933 65.976 43.45 65.936 42.93C65.9293 42.8633 65.916 42.6933 65.896 42.42C65.876 42.14 65.8727 41.86 65.886 41.58L65.896 41.25C65.936 41.21 65.9827 41.19 66.036 41.19C66.1093 41.19 66.1693 41.2367 66.216 41.33C66.2693 41.4167 66.296 41.55 66.296 41.73C66.396 41.5567 66.5427 41.4 66.736 41.26C66.9293 41.12 67.1327 41.05 67.346 41.05C67.7127 41.05 68.016 41.1267 68.256 41.28C68.5027 41.4267 68.726 41.6667 68.926 42C69.1127 41.66 69.3927 41.37 69.766 41.13C70.146 40.89 70.536 40.77 70.936 40.77C71.3493 40.77 71.6927 40.9267 71.966 41.24C72.246 41.5533 72.4493 41.93 72.576 42.37C72.7093 42.81 72.776 43.2167 72.776 43.59C72.776 43.9233 72.746 44.2433 72.686 44.55C72.6327 44.8567 72.506 45.01 72.306 45.01ZM76.1497 45C75.4564 45 74.853 44.88 74.3397 44.64C73.833 44.3933 73.5797 43.9633 73.5797 43.35C73.5797 43.13 73.6464 42.9167 73.7797 42.71C73.913 42.5033 74.1097 42.3367 74.3697 42.21C74.6297 42.0767 74.9464 42.01 75.3197 42.01C75.6064 42.01 75.8497 42.0233 76.0497 42.05C76.2497 42.0767 76.4797 42.15 76.7397 42.27C76.9997 42.39 77.2697 42.58 77.5497 42.84C77.443 42.38 77.283 41.9767 77.0697 41.63C76.8564 41.2833 76.6164 41.0167 76.3497 40.83C76.0897 40.6367 75.833 40.54 75.5797 40.54C75.4597 40.54 75.3464 40.5633 75.2397 40.61C75.1397 40.65 75.0164 40.71 74.8697 40.79C74.703 40.8967 74.5797 40.95 74.4997 40.95C74.4664 40.95 74.4364 40.94 74.4097 40.92C74.3897 40.8933 74.3797 40.8633 74.3797 40.83C74.3797 40.5633 74.4964 40.3567 74.7297 40.21C74.9697 40.0633 75.2597 39.9967 75.5997 40.01C76.0664 40.0367 76.493 40.2367 76.8797 40.61C77.2664 40.9767 77.5697 41.4333 77.7897 41.98C78.0164 42.5267 78.1297 43.0633 78.1297 43.59C78.1297 43.6767 78.123 43.8 78.1097 43.96L77.7897 43.94C77.5364 43.4267 77.2097 43.0633 76.8097 42.85C76.4164 42.63 76.0197 42.52 75.6197 42.52C75.1064 42.52 74.7397 42.5967 74.5197 42.75C74.2997 42.9033 74.1897 43.1267 74.1897 43.42C74.1897 43.7267 74.343 43.9733 74.6497 44.16C74.9564 44.3467 75.3497 44.44 75.8297 44.44C76.0964 44.44 76.3097 44.4267 76.4697 44.4C76.6297 44.3667 76.7964 44.3233 76.9697 44.27C77.1097 44.2233 77.233 44.19 77.3397 44.17C77.4464 44.15 77.583 44.14 77.7497 44.14C77.9364 44.14 78.053 44.1533 78.0997 44.18C78.153 44.2067 78.1797 44.2667 78.1797 44.36C78.1797 44.4267 78.043 44.51 77.7697 44.61C77.4964 44.71 77.1897 44.8 76.8497 44.88C76.5097 44.96 76.2764 45 76.1497 45ZM79.8601 45C79.5867 44.4667 79.3701 43.84 79.2101 43.12C79.0567 42.4 78.9801 41.7767 78.9801 41.25C78.9801 41.0433 79.0267 40.91 79.1201 40.85C79.1734 40.8167 79.2134 40.8 79.2401 40.8C79.2867 40.8 79.3201 40.8367 79.3401 40.91C79.3667 40.9833 79.3934 41.1167 79.4201 41.31L79.4701 41.67C79.5434 41.31 79.6834 41.0267 79.8901 40.82C80.1034 40.6067 80.3634 40.5 80.6701 40.5C81.0101 40.5 81.2634 40.5667 81.4301 40.7C81.5967 40.8267 81.6801 41.04 81.6801 41.34C81.3467 41.18 81.0434 41.1 80.7701 41.1C80.5101 41.1 80.2867 41.17 80.1001 41.31C79.9134 41.45 79.7834 41.6567 79.7101 41.93C79.6501 42.1167 79.6201 42.2933 79.6201 42.46C79.6201 42.64 79.6434 42.81 79.6901 42.97C79.7434 43.1233 79.8234 43.3133 79.9301 43.54C80.0301 43.7733 80.1067 43.9733 80.1601 44.14C80.2201 44.3067 80.2534 44.4867 80.2601 44.68C80.2601 44.7933 80.2201 44.8767 80.1401 44.93C80.0601 44.9767 79.9667 45 79.8601 45ZM83.6858 45C83.6191 45.0133 83.5758 45.02 83.5558 45.02C83.3491 45.02 83.2058 44.8667 83.1258 44.56C83.0524 44.2533 83.0158 43.8233 83.0158 43.27C83.0158 43.0433 83.0224 42.69 83.0358 42.21C83.0491 41.9167 83.0558 41.6967 83.0558 41.55C82.2358 41.55 81.8258 41.4567 81.8258 41.27C81.8258 41.21 81.8324 41.1633 81.8458 41.13C81.8658 41.0967 81.9058 41.08 81.9658 41.08L83.0558 41.01C83.0491 40.6833 83.0324 40.3267 83.0058 39.94C82.9791 39.5933 82.9624 39.2733 82.9558 38.98C82.9558 38.9067 82.9858 38.8567 83.0458 38.83C83.1058 38.7967 83.1691 38.78 83.2358 38.78C83.3158 38.78 83.3824 38.8233 83.4358 38.91C83.4891 38.99 83.5158 39.0733 83.5158 39.16L83.5858 40.99L84.4158 41.03C84.5424 41.0167 84.6491 41.04 84.7358 41.1C84.8291 41.16 84.8791 41.26 84.8858 41.4C84.7458 41.46 84.5924 41.4967 84.4258 41.51C84.2591 41.5233 83.9791 41.53 83.5858 41.53C83.5858 42.15 83.6158 43.17 83.6758 44.59C83.6758 44.7367 83.6758 44.84 83.6758 44.9C83.6824 44.9533 83.6858 44.9867 83.6858 45ZM92.6252 40.88C92.6252 41.1667 92.6385 41.4467 92.6652 41.72C92.6985 41.9867 92.7485 42.3633 92.8152 42.85C92.9418 43.67 93.0052 44.3233 93.0052 44.81C93.0052 44.91 92.9852 44.97 92.9452 44.99C92.9052 45.01 92.8585 45.02 92.8052 45.02C92.7518 45.02 92.7152 45.02 92.6952 45.02C92.6018 45.02 92.5285 45.01 92.4752 44.99C92.4218 44.9633 92.3785 44.9033 92.3452 44.81L92.1352 42.09C92.1152 41.8167 92.0885 41.2667 92.0552 40.44C91.7685 40.7733 91.4852 41.0267 91.2052 41.2C90.9252 41.3667 90.6385 41.45 90.3452 41.45C89.9252 41.45 89.5052 41.1533 89.0852 40.56C89.1052 40.66 89.1152 40.7933 89.1152 40.96C89.1152 41.1267 89.1152 41.2233 89.1152 41.25L89.1052 44.52C89.1052 44.5867 89.0685 44.64 88.9952 44.68C88.9285 44.7133 88.8585 44.73 88.7852 44.73C88.6918 44.73 88.6252 44.6967 88.5852 44.63C88.5518 44.5567 88.5252 44.46 88.5052 44.34V42.94C88.5052 42.7267 88.5118 42.4867 88.5252 42.22C88.5385 41.9533 88.5485 41.7667 88.5552 41.66C88.5885 41.1933 88.6052 40.77 88.6052 40.39C88.6052 40.2767 88.5852 40.17 88.5452 40.07C88.5052 39.9633 88.4452 39.8467 88.3652 39.72C88.2852 39.5933 88.2252 39.4833 88.1852 39.39C88.1518 39.2967 88.1352 39.1967 88.1352 39.09C88.1352 38.9633 88.1985 38.9 88.3252 38.9C88.5252 38.9 88.6885 38.9733 88.8152 39.12C88.9418 39.26 89.0785 39.4733 89.2252 39.76C89.3518 39.9933 89.4618 40.1767 89.5552 40.31C89.6485 40.4433 89.7685 40.56 89.9152 40.66C90.0618 40.7533 90.2385 40.8 90.4452 40.8C90.7452 40.8133 90.9918 40.7567 91.1852 40.63C91.3785 40.4967 91.5252 40.3367 91.6252 40.15C91.7252 39.9633 91.8218 39.7367 91.9152 39.47C91.9952 39.25 92.0652 39.0967 92.1252 39.01C92.1852 38.9167 92.2585 38.88 92.3452 38.9C92.5452 38.8867 92.6452 39.07 92.6452 39.45C92.6452 39.77 92.6418 40.0067 92.6352 40.16L92.6252 40.88ZM96.0794 45.01C95.686 45.01 95.3294 44.9233 95.0094 44.75C94.696 44.57 94.4494 44.3233 94.2694 44.01C94.096 43.69 94.0094 43.3267 94.0094 42.92C94.0094 42.2533 94.2527 41.7567 94.7394 41.43C95.2327 41.1033 95.836 40.94 96.5494 40.94C96.876 40.94 97.1794 41.02 97.4594 41.18C97.746 41.34 97.976 41.57 98.1494 41.87C98.3227 42.17 98.4094 42.5167 98.4094 42.91C98.4094 43.3367 98.2994 43.71 98.0794 44.03C97.8594 44.3433 97.5694 44.5867 97.2094 44.76C96.856 44.9267 96.4794 45.01 96.0794 45.01ZM95.9694 44.44C96.5894 44.44 97.0594 44.3 97.3794 44.02C97.6994 43.74 97.8594 43.33 97.8594 42.79C97.8594 42.4233 97.7327 42.1067 97.4794 41.84C97.2327 41.5733 96.886 41.44 96.4394 41.44C96.1394 41.44 95.836 41.4967 95.5294 41.61C95.2227 41.7233 94.9694 41.8933 94.7694 42.12C94.5694 42.3467 94.4694 42.62 94.4694 42.94C94.4694 43.2067 94.536 43.4567 94.6694 43.69C94.8027 43.9167 94.9827 44.1 95.2094 44.24C95.4427 44.3733 95.696 44.44 95.9694 44.44ZM100.155 45.04C100.061 45.0667 100.008 45.08 99.9947 45.08C99.9414 45.08 99.8847 45.0533 99.8247 45C99.6047 44.6733 99.4447 44.1033 99.3447 43.29C99.2514 42.4767 99.2047 41.7767 99.2047 41.19C99.2047 41.0967 99.2714 41.05 99.4047 41.05C99.6047 41.05 99.7047 41.16 99.7047 41.38C99.7047 41.44 99.7014 41.49 99.6947 41.53C99.7547 41.39 99.868 41.2467 100.035 41.1C100.201 40.9533 100.395 40.83 100.615 40.73C100.835 40.63 101.058 40.58 101.285 40.58C101.998 40.58 102.518 40.8967 102.845 41.53C103.171 42.1567 103.335 42.9367 103.335 43.87C103.335 44.19 103.301 44.4467 103.235 44.64C103.168 44.8267 103.078 44.92 102.965 44.92C102.845 44.92 102.785 44.8833 102.785 44.81C102.831 44.4567 102.855 44.11 102.855 43.77C102.855 42.91 102.705 42.26 102.405 41.82C102.105 41.3733 101.708 41.15 101.215 41.15C100.975 41.15 100.741 41.21 100.515 41.33C100.295 41.45 100.115 41.6167 99.9747 41.83C99.8414 42.0433 99.7747 42.2867 99.7747 42.56C99.7747 42.8667 99.7914 43.1333 99.8247 43.36C99.858 43.5867 99.9114 43.86 99.9847 44.18C100.065 44.4933 100.121 44.78 100.155 45.04ZM104.806 45.01C104.653 45.01 104.53 44.7867 104.436 44.34C104.343 43.8867 104.283 43.4967 104.256 43.17C104.23 42.8433 104.193 42.3267 104.146 41.62C104.14 41.5067 104.136 41.36 104.136 41.18C104.136 40.9533 104.153 40.7967 104.186 40.71C104.226 40.6233 104.29 40.58 104.376 40.58C104.45 40.58 104.506 40.5967 104.546 40.63C104.593 40.6567 104.633 40.7033 104.666 40.77L104.656 41.17C104.656 41.5967 104.676 42 104.716 42.38C104.763 42.76 104.833 43.27 104.926 43.91C104.98 44.19 105.016 44.42 105.036 44.6C105.05 44.6933 105.033 44.7867 104.986 44.88C104.94 44.9667 104.88 45.01 104.806 45.01ZM104.556 39.51C104.41 39.51 104.3 39.4533 104.226 39.34C104.16 39.2267 104.126 39.0867 104.126 38.92C104.126 38.8467 104.13 38.7933 104.136 38.76C104.13 38.6533 104.19 38.6 104.316 38.6C104.41 38.6 104.503 38.6233 104.596 38.67C104.696 38.71 104.726 38.74 104.686 38.76C104.753 38.9333 104.786 39.07 104.786 39.17C104.786 39.2567 104.766 39.3267 104.726 39.38C104.686 39.4267 104.63 39.47 104.556 39.51ZM107.543 45C107.477 45.0133 107.433 45.02 107.413 45.02C107.207 45.02 107.063 44.8667 106.983 44.56C106.91 44.2533 106.873 43.8233 106.873 43.27C106.873 43.0433 106.88 42.69 106.893 42.21C106.907 41.9167 106.913 41.6967 106.913 41.55C106.093 41.55 105.683 41.4567 105.683 41.27C105.683 41.21 105.69 41.1633 105.703 41.13C105.723 41.0967 105.763 41.08 105.823 41.08L106.913 41.01C106.907 40.6833 106.89 40.3267 106.863 39.94C106.837 39.5933 106.82 39.2733 106.813 38.98C106.813 38.9067 106.843 38.8567 106.903 38.83C106.963 38.7967 107.027 38.78 107.093 38.78C107.173 38.78 107.24 38.8233 107.293 38.91C107.347 38.99 107.373 39.0733 107.373 39.16L107.443 40.99L108.273 41.03C108.4 41.0167 108.507 41.04 108.593 41.1C108.687 41.16 108.737 41.26 108.743 41.4C108.603 41.46 108.45 41.4967 108.283 41.51C108.117 41.5233 107.837 41.53 107.443 41.53C107.443 42.15 107.473 43.17 107.533 44.59C107.533 44.7367 107.533 44.84 107.533 44.9C107.54 44.9533 107.543 44.9867 107.543 45ZM111.363 45.01C110.969 45.01 110.613 44.9233 110.293 44.75C109.979 44.57 109.733 44.3233 109.553 44.01C109.379 43.69 109.293 43.3267 109.293 42.92C109.293 42.2533 109.536 41.7567 110.023 41.43C110.516 41.1033 111.119 40.94 111.833 40.94C112.159 40.94 112.463 41.02 112.743 41.18C113.029 41.34 113.259 41.57 113.433 41.87C113.606 42.17 113.693 42.5167 113.693 42.91C113.693 43.3367 113.583 43.71 113.363 44.03C113.143 44.3433 112.853 44.5867 112.493 44.76C112.139 44.9267 111.763 45.01 111.363 45.01ZM111.253 44.44C111.873 44.44 112.343 44.3 112.663 44.02C112.983 43.74 113.143 43.33 113.143 42.79C113.143 42.4233 113.016 42.1067 112.763 41.84C112.516 41.5733 112.169 41.44 111.723 41.44C111.423 41.44 111.119 41.4967 110.813 41.61C110.506 41.7233 110.253 41.8933 110.053 42.12C109.853 42.3467 109.753 42.62 109.753 42.94C109.753 43.2067 109.819 43.4567 109.953 43.69C110.086 43.9167 110.266 44.1 110.493 44.24C110.726 44.3733 110.979 44.44 111.253 44.44ZM115.368 45C115.095 44.4667 114.878 43.84 114.718 43.12C114.565 42.4 114.488 41.7767 114.488 41.25C114.488 41.0433 114.535 40.91 114.628 40.85C114.681 40.8167 114.721 40.8 114.748 40.8C114.795 40.8 114.828 40.8367 114.848 40.91C114.875 40.9833 114.901 41.1167 114.928 41.31L114.978 41.67C115.051 41.31 115.191 41.0267 115.398 40.82C115.611 40.6067 115.871 40.5 116.178 40.5C116.518 40.5 116.771 40.5667 116.938 40.7C117.105 40.8267 117.188 41.04 117.188 41.34C116.855 41.18 116.551 41.1 116.278 41.1C116.018 41.1 115.795 41.17 115.608 41.31C115.421 41.45 115.291 41.6567 115.218 41.93C115.158 42.1167 115.128 42.2933 115.128 42.46C115.128 42.64 115.151 42.81 115.198 42.97C115.251 43.1233 115.331 43.3133 115.438 43.54C115.538 43.7733 115.615 43.9733 115.668 44.14C115.728 44.3067 115.761 44.4867 115.768 44.68C115.768 44.7933 115.728 44.8767 115.648 44.93C115.568 44.9767 115.475 45 115.368 45ZM118.254 45.01C118.1 45.01 117.977 44.7867 117.884 44.34C117.79 43.8867 117.73 43.4967 117.704 43.17C117.677 42.8433 117.64 42.3267 117.594 41.62C117.587 41.5067 117.584 41.36 117.584 41.18C117.584 40.9533 117.6 40.7967 117.634 40.71C117.674 40.6233 117.737 40.58 117.824 40.58C117.897 40.58 117.954 40.5967 117.994 40.63C118.04 40.6567 118.08 40.7033 118.114 40.77L118.104 41.17C118.104 41.5967 118.124 42 118.164 42.38C118.21 42.76 118.28 43.27 118.374 43.91C118.427 44.19 118.464 44.42 118.484 44.6C118.497 44.6933 118.48 44.7867 118.434 44.88C118.387 44.9667 118.327 45.01 118.254 45.01ZM118.004 39.51C117.857 39.51 117.747 39.4533 117.674 39.34C117.607 39.2267 117.574 39.0867 117.574 38.92C117.574 38.8467 117.577 38.7933 117.584 38.76C117.577 38.6533 117.637 38.6 117.764 38.6C117.857 38.6 117.95 38.6233 118.044 38.67C118.144 38.71 118.174 38.74 118.134 38.76C118.2 38.9333 118.234 39.07 118.234 39.17C118.234 39.2567 118.214 39.3267 118.174 39.38C118.134 39.4267 118.077 39.47 118.004 39.51ZM120.33 45.04C120.237 45.0667 120.184 45.08 120.17 45.08C120.117 45.08 120.06 45.0533 120 45C119.78 44.6733 119.62 44.1033 119.52 43.29C119.427 42.4767 119.38 41.7767 119.38 41.19C119.38 41.0967 119.447 41.05 119.58 41.05C119.78 41.05 119.88 41.16 119.88 41.38C119.88 41.44 119.877 41.49 119.87 41.53C119.93 41.39 120.044 41.2467 120.21 41.1C120.377 40.9533 120.57 40.83 120.79 40.73C121.01 40.63 121.234 40.58 121.46 40.58C122.174 40.58 122.694 40.8967 123.02 41.53C123.347 42.1567 123.51 42.9367 123.51 43.87C123.51 44.19 123.477 44.4467 123.41 44.64C123.344 44.8267 123.254 44.92 123.14 44.92C123.02 44.92 122.96 44.8833 122.96 44.81C123.007 44.4567 123.03 44.11 123.03 43.77C123.03 42.91 122.88 42.26 122.58 41.82C122.28 41.3733 121.884 41.15 121.39 41.15C121.15 41.15 120.917 41.21 120.69 41.33C120.47 41.45 120.29 41.6167 120.15 41.83C120.017 42.0433 119.95 42.2867 119.95 42.56C119.95 42.8667 119.967 43.1333 120 43.36C120.034 43.5867 120.087 43.86 120.16 44.18C120.24 44.4933 120.297 44.78 120.33 45.04ZM125.992 49.88C125.432 49.88 124.962 49.72 124.582 49.4C124.209 49.0867 123.985 48.5567 123.912 47.81C123.905 47.6967 123.922 47.61 123.962 47.55C124.009 47.49 124.069 47.46 124.142 47.46C124.222 47.46 124.292 47.49 124.352 47.55C124.412 47.6167 124.439 47.7033 124.432 47.81C124.432 48.25 124.582 48.5967 124.882 48.85C125.189 49.11 125.579 49.24 126.052 49.24C126.325 49.24 126.565 49.14 126.772 48.94C126.985 48.74 127.149 48.46 127.262 48.1C127.375 47.7467 127.432 47.34 127.432 46.88C127.432 46.0733 127.442 45.29 127.462 44.53L127.472 44.02C127.212 44.2933 126.975 44.4933 126.762 44.62C126.555 44.7467 126.305 44.81 126.012 44.81C125.499 44.81 125.119 44.6733 124.872 44.4C124.632 44.12 124.512 43.6933 124.512 43.12C124.512 42.7933 124.599 42.4533 124.772 42.1C124.952 41.74 125.195 41.44 125.502 41.2C125.815 40.96 126.169 40.84 126.562 40.84C126.695 40.84 126.819 40.8533 126.932 40.88C127.359 40.9733 127.645 41.37 127.792 42.07C127.939 42.77 128.012 43.6767 128.012 44.79C128.012 45.0967 128.005 45.5033 127.992 46.01L127.982 46.96C127.982 47.34 127.922 47.7533 127.802 48.2C127.682 48.6533 127.472 49.0467 127.172 49.38C126.872 49.7133 126.479 49.88 125.992 49.88ZM125.862 44.15C126.355 44.15 126.729 44.0333 126.982 43.8C127.235 43.56 127.362 43.21 127.362 42.75C127.362 42.69 127.355 42.5867 127.342 42.44C127.309 42.1333 127.229 41.8933 127.102 41.72C126.982 41.54 126.792 41.45 126.532 41.45C126.259 41.45 126.009 41.5467 125.782 41.74C125.555 41.9333 125.379 42.1733 125.252 42.46C125.125 42.74 125.062 43.0033 125.062 43.25C125.062 43.4967 125.135 43.71 125.282 43.89C125.429 44.0633 125.622 44.15 125.862 44.15ZM133.774 37.96C134.074 37.96 134.361 38.0367 134.634 38.19C134.907 38.3367 135.127 38.5267 135.294 38.76C135.467 38.9933 135.554 39.2267 135.554 39.46H135.334C135.234 39.46 135.144 39.43 135.064 39.37C134.991 39.31 134.894 39.2133 134.774 39.08C134.601 38.8933 134.444 38.7533 134.304 38.66C134.171 38.5667 133.997 38.52 133.784 38.52C133.417 38.52 133.111 38.69 132.864 39.03C132.617 39.3633 132.471 39.7567 132.424 40.21C132.404 40.4167 132.394 40.6233 132.394 40.83C132.394 41.17 132.417 41.4833 132.464 41.77C132.551 41.7833 132.754 41.8 133.074 41.82C133.394 41.84 133.657 41.8567 133.864 41.87C133.937 41.87 134.081 41.8767 134.294 41.89C134.361 41.89 134.407 41.9067 134.434 41.94C134.467 41.9667 134.484 42.0167 134.484 42.09C134.484 42.27 134.281 42.36 133.874 42.36C133.521 42.36 133.077 42.2967 132.544 42.17C132.617 42.47 132.711 42.7467 132.824 43C132.937 43.2467 133.084 43.5433 133.264 43.89C133.391 44.1367 133.484 44.33 133.544 44.47C133.604 44.6033 133.634 44.7167 133.634 44.81C133.634 44.8833 133.611 44.9367 133.564 44.97C133.517 44.9967 133.451 45.01 133.364 45.01C133.184 45.01 133.014 44.82 132.854 44.44C132.701 44.0533 132.524 43.52 132.324 42.84L132.144 42.25C131.997 42.2633 131.814 42.3033 131.594 42.37C131.574 42.3767 131.504 42.3967 131.384 42.43C131.271 42.4567 131.167 42.47 131.074 42.47C130.967 42.47 130.914 42.4067 130.914 42.28C130.914 42.1133 131.001 42.0033 131.174 41.95C131.347 41.89 131.511 41.8567 131.664 41.85C131.817 41.8367 131.914 41.8267 131.954 41.82C131.941 41.5667 131.934 41.34 131.934 41.14C131.934 40.28 132.064 39.5367 132.324 38.91C132.591 38.2767 133.074 37.96 133.774 37.96ZM137.427 45.01C137.034 45.01 136.677 44.9233 136.357 44.75C136.044 44.57 135.797 44.3233 135.617 44.01C135.444 43.69 135.357 43.3267 135.357 42.92C135.357 42.2533 135.6 41.7567 136.087 41.43C136.58 41.1033 137.184 40.94 137.897 40.94C138.224 40.94 138.527 41.02 138.807 41.18C139.094 41.34 139.324 41.57 139.497 41.87C139.67 42.17 139.757 42.5167 139.757 42.91C139.757 43.3367 139.647 43.71 139.427 44.03C139.207 44.3433 138.917 44.5867 138.557 44.76C138.204 44.9267 137.827 45.01 137.427 45.01ZM137.317 44.44C137.937 44.44 138.407 44.3 138.727 44.02C139.047 43.74 139.207 43.33 139.207 42.79C139.207 42.4233 139.08 42.1067 138.827 41.84C138.58 41.5733 138.234 41.44 137.787 41.44C137.487 41.44 137.184 41.4967 136.877 41.61C136.57 41.7233 136.317 41.8933 136.117 42.12C135.917 42.3467 135.817 42.62 135.817 42.94C135.817 43.2067 135.884 43.4567 136.017 43.69C136.15 43.9167 136.33 44.1 136.557 44.24C136.79 44.3733 137.044 44.44 137.317 44.44ZM141.432 45C141.159 44.4667 140.942 43.84 140.782 43.12C140.629 42.4 140.552 41.7767 140.552 41.25C140.552 41.0433 140.599 40.91 140.692 40.85C140.746 40.8167 140.786 40.8 140.812 40.8C140.859 40.8 140.892 40.8367 140.912 40.91C140.939 40.9833 140.966 41.1167 140.992 41.31L141.042 41.67C141.116 41.31 141.256 41.0267 141.462 40.82C141.676 40.6067 141.936 40.5 142.242 40.5C142.582 40.5 142.836 40.5667 143.002 40.7C143.169 40.8267 143.252 41.04 143.252 41.34C142.919 41.18 142.616 41.1 142.342 41.1C142.082 41.1 141.859 41.17 141.672 41.31C141.486 41.45 141.356 41.6567 141.282 41.93C141.222 42.1167 141.192 42.2933 141.192 42.46C141.192 42.64 141.216 42.81 141.262 42.97C141.316 43.1233 141.396 43.3133 141.502 43.54C141.602 43.7733 141.679 43.9733 141.732 44.14C141.792 44.3067 141.826 44.4867 141.832 44.68C141.832 44.7933 141.792 44.8767 141.712 44.93C141.632 44.9767 141.539 45 141.432 45ZM149.238 45.01C149.051 45.01 148.921 44.9133 148.848 44.72C148.775 44.5267 148.715 44.2667 148.668 43.94L148.638 43.69C148.538 43.1567 148.458 42.6267 148.398 42.1C148.338 41.5667 148.278 40.9233 148.218 40.17L148.158 39.43C147.758 39.4367 147.188 39.42 146.448 39.38L146.248 39.37C146.155 39.3633 146.088 39.32 146.048 39.24C146.015 39.1533 145.998 39.0367 145.998 38.89H146.688C147.848 38.89 148.895 38.9333 149.828 39.02C150.761 39.1067 151.228 39.2833 151.228 39.55C151.228 39.6233 151.215 39.6733 151.188 39.7C151.168 39.7267 151.121 39.74 151.048 39.74C150.781 39.72 150.368 39.6633 149.808 39.57C149.681 39.55 149.528 39.5267 149.348 39.5C149.168 39.4733 148.965 39.4467 148.738 39.42C148.738 40.3867 148.881 41.8733 149.168 43.88C149.181 43.98 149.228 44.1233 149.308 44.31C149.341 44.39 149.371 44.4767 149.398 44.57C149.431 44.6567 149.448 44.7367 149.448 44.81C149.448 44.9033 149.435 44.96 149.408 44.98C149.381 45 149.348 45.01 149.308 45.01C149.275 45.01 149.251 45.01 149.238 45.01ZM152.98 44.98C152.947 44.9867 152.91 44.86 152.87 44.6C152.837 44.34 152.79 43.8933 152.73 43.26C152.637 42.22 152.53 41.2667 152.41 40.4C152.297 39.5333 152.154 38.7833 151.98 38.15C151.967 38.0967 151.987 38.05 152.04 38.01C152.094 37.97 152.167 37.95 152.26 37.95C152.307 37.95 152.344 37.9533 152.37 37.96C152.537 38.4133 152.654 38.8133 152.72 39.16C152.794 39.5067 152.86 39.9333 152.92 40.44L152.97 40.83C153.37 40.59 153.737 40.47 154.07 40.47C154.677 40.47 155.107 40.7467 155.36 41.3C155.62 41.8467 155.75 42.6267 155.75 43.64C155.75 44.0267 155.727 44.3533 155.68 44.62C155.634 44.88 155.577 45.01 155.51 45.01C155.424 45.01 155.327 44.9467 155.22 44.82V44.49L155.23 43.4C155.23 43.1933 155.224 42.9367 155.21 42.63C155.19 42.11 155.084 41.7167 154.89 41.45C154.704 41.1833 154.38 41.05 153.92 41.05C153.614 41.05 153.327 41.1633 153.06 41.39C153.06 41.6433 153.07 41.9033 153.09 42.17C153.117 42.4367 153.147 42.6967 153.18 42.95C153.227 43.3033 153.26 43.6167 153.28 43.89C153.307 44.1567 153.32 44.4533 153.32 44.78C153.28 44.86 153.234 44.9133 153.18 44.94C153.134 44.9667 153.067 44.98 152.98 44.98ZM157.507 45C157.233 44.4667 157.017 43.84 156.857 43.12C156.703 42.4 156.627 41.7767 156.627 41.25C156.627 41.0433 156.673 40.91 156.767 40.85C156.82 40.8167 156.86 40.8 156.887 40.8C156.933 40.8 156.967 40.8367 156.987 40.91C157.013 40.9833 157.04 41.1167 157.067 41.31L157.117 41.67C157.19 41.31 157.33 41.0267 157.537 40.82C157.75 40.6067 158.01 40.5 158.317 40.5C158.657 40.5 158.91 40.5667 159.077 40.7C159.243 40.8267 159.327 41.04 159.327 41.34C158.993 41.18 158.69 41.1 158.417 41.1C158.157 41.1 157.933 41.17 157.747 41.31C157.56 41.45 157.43 41.6567 157.357 41.93C157.297 42.1167 157.267 42.2933 157.267 42.46C157.267 42.64 157.29 42.81 157.337 42.97C157.39 43.1233 157.47 43.3133 157.577 43.54C157.677 43.7733 157.753 43.9733 157.807 44.14C157.867 44.3067 157.9 44.4867 157.907 44.68C157.907 44.7933 157.867 44.8767 157.787 44.93C157.707 44.9767 157.613 45 157.507 45ZM160.392 45.01C160.239 45.01 160.116 44.7867 160.022 44.34C159.929 43.8867 159.869 43.4967 159.842 43.17C159.816 42.8433 159.779 42.3267 159.732 41.62C159.726 41.5067 159.722 41.36 159.722 41.18C159.722 40.9533 159.739 40.7967 159.772 40.71C159.812 40.6233 159.876 40.58 159.962 40.58C160.036 40.58 160.092 40.5967 160.132 40.63C160.179 40.6567 160.219 40.7033 160.252 40.77L160.242 41.17C160.242 41.5967 160.262 42 160.302 42.38C160.349 42.76 160.419 43.27 160.512 43.91C160.566 44.19 160.602 44.42 160.622 44.6C160.636 44.6933 160.619 44.7867 160.572 44.88C160.526 44.9667 160.466 45.01 160.392 45.01ZM160.142 39.51C159.996 39.51 159.886 39.4533 159.812 39.34C159.746 39.2267 159.712 39.0867 159.712 38.92C159.712 38.8467 159.716 38.7933 159.722 38.76C159.716 38.6533 159.776 38.6 159.902 38.6C159.996 38.6 160.089 38.6233 160.182 38.67C160.282 38.71 160.312 38.74 160.272 38.76C160.339 38.9333 160.372 39.07 160.372 39.17C160.372 39.2567 160.352 39.3267 160.312 39.38C160.272 39.4267 160.216 39.47 160.142 39.51ZM163.239 45.01C163.046 45.01 162.792 44.7233 162.479 44.15C162.172 43.57 161.816 42.8367 161.409 41.95L161.119 41.33C161.119 41.2633 161.159 41.2 161.239 41.14C161.319 41.0733 161.439 41.0433 161.599 41.05C161.639 41.1233 161.766 41.3933 161.979 41.86C162.232 42.4067 162.446 42.8567 162.619 43.21C162.799 43.5567 163.016 43.93 163.269 44.33C163.382 43.9167 163.509 43.53 163.649 43.17C163.796 42.8033 164.012 42.2867 164.299 41.62L164.449 41.27C164.489 41.19 164.566 41.15 164.679 41.15C164.759 41.15 164.829 41.17 164.889 41.21C164.949 41.25 164.979 41.3067 164.979 41.38C164.979 41.4467 164.946 41.5167 164.879 41.59C164.832 41.6367 164.766 41.7733 164.679 42C164.592 42.22 164.502 42.4667 164.409 42.74C164.156 43.46 163.936 44.0233 163.749 44.43C163.562 44.83 163.392 45.0233 163.239 45.01ZM166.047 45.01C165.893 45.01 165.77 44.7867 165.677 44.34C165.583 43.8867 165.523 43.4967 165.497 43.17C165.47 42.8433 165.433 42.3267 165.387 41.62C165.38 41.5067 165.377 41.36 165.377 41.18C165.377 40.9533 165.393 40.7967 165.427 40.71C165.467 40.6233 165.53 40.58 165.617 40.58C165.69 40.58 165.747 40.5967 165.787 40.63C165.833 40.6567 165.873 40.7033 165.907 40.77L165.897 41.17C165.897 41.5967 165.917 42 165.957 42.38C166.003 42.76 166.073 43.27 166.167 43.91C166.22 44.19 166.257 44.42 166.277 44.6C166.29 44.6933 166.273 44.7867 166.227 44.88C166.18 44.9667 166.12 45.01 166.047 45.01ZM165.797 39.51C165.65 39.51 165.54 39.4533 165.467 39.34C165.4 39.2267 165.367 39.0867 165.367 38.92C165.367 38.8467 165.37 38.7933 165.377 38.76C165.37 38.6533 165.43 38.6 165.557 38.6C165.65 38.6 165.743 38.6233 165.837 38.67C165.937 38.71 165.967 38.74 165.927 38.76C165.993 38.9333 166.027 39.07 166.027 39.17C166.027 39.2567 166.007 39.3267 165.967 39.38C165.927 39.4267 165.87 39.47 165.797 39.51ZM168.123 45.04C168.03 45.0667 167.977 45.08 167.963 45.08C167.91 45.08 167.853 45.0533 167.793 45C167.573 44.6733 167.413 44.1033 167.313 43.29C167.22 42.4767 167.173 41.7767 167.173 41.19C167.173 41.0967 167.24 41.05 167.373 41.05C167.573 41.05 167.673 41.16 167.673 41.38C167.673 41.44 167.67 41.49 167.663 41.53C167.723 41.39 167.837 41.2467 168.003 41.1C168.17 40.9533 168.363 40.83 168.583 40.73C168.803 40.63 169.027 40.58 169.253 40.58C169.967 40.58 170.487 40.8967 170.813 41.53C171.14 42.1567 171.303 42.9367 171.303 43.87C171.303 44.19 171.27 44.4467 171.203 44.64C171.137 44.8267 171.047 44.92 170.933 44.92C170.813 44.92 170.753 44.8833 170.753 44.81C170.8 44.4567 170.823 44.11 170.823 43.77C170.823 42.91 170.673 42.26 170.373 41.82C170.073 41.3733 169.677 41.15 169.183 41.15C168.943 41.15 168.71 41.21 168.483 41.33C168.263 41.45 168.083 41.6167 167.943 41.83C167.81 42.0433 167.743 42.2867 167.743 42.56C167.743 42.8667 167.76 43.1333 167.793 43.36C167.827 43.5867 167.88 43.86 167.953 44.18C168.033 44.4933 168.09 44.78 168.123 45.04ZM173.785 49.88C173.225 49.88 172.755 49.72 172.375 49.4C172.002 49.0867 171.778 48.5567 171.705 47.81C171.698 47.6967 171.715 47.61 171.755 47.55C171.802 47.49 171.862 47.46 171.935 47.46C172.015 47.46 172.085 47.49 172.145 47.55C172.205 47.6167 172.232 47.7033 172.225 47.81C172.225 48.25 172.375 48.5967 172.675 48.85C172.982 49.11 173.372 49.24 173.845 49.24C174.118 49.24 174.358 49.14 174.565 48.94C174.778 48.74 174.942 48.46 175.055 48.1C175.168 47.7467 175.225 47.34 175.225 46.88C175.225 46.0733 175.235 45.29 175.255 44.53L175.265 44.02C175.005 44.2933 174.768 44.4933 174.555 44.62C174.348 44.7467 174.098 44.81 173.805 44.81C173.292 44.81 172.912 44.6733 172.665 44.4C172.425 44.12 172.305 43.6933 172.305 43.12C172.305 42.7933 172.392 42.4533 172.565 42.1C172.745 41.74 172.988 41.44 173.295 41.2C173.608 40.96 173.962 40.84 174.355 40.84C174.488 40.84 174.612 40.8533 174.725 40.88C175.152 40.9733 175.438 41.37 175.585 42.07C175.732 42.77 175.805 43.6767 175.805 44.79C175.805 45.0967 175.798 45.5033 175.785 46.01L175.775 46.96C175.775 47.34 175.715 47.7533 175.595 48.2C175.475 48.6533 175.265 49.0467 174.965 49.38C174.665 49.7133 174.272 49.88 173.785 49.88ZM173.655 44.15C174.148 44.15 174.522 44.0333 174.775 43.8C175.028 43.56 175.155 43.21 175.155 42.75C175.155 42.69 175.148 42.5867 175.135 42.44C175.102 42.1333 175.022 41.8933 174.895 41.72C174.775 41.54 174.585 41.45 174.325 41.45C174.052 41.45 173.802 41.5467 173.575 41.74C173.348 41.9333 173.172 42.1733 173.045 42.46C172.918 42.74 172.855 43.0033 172.855 43.25C172.855 43.4967 172.928 43.71 173.075 43.89C173.222 44.0633 173.415 44.15 173.655 44.15ZM183.747 45C183.58 45.0333 183.464 44.9533 183.397 44.76C183.33 44.56 183.294 44.2667 183.287 43.88C183.274 43.3133 183.254 42.84 183.227 42.46C183.207 42.0733 183.167 41.7267 183.107 41.42C182.487 41.7133 181.874 41.9833 181.267 42.23C180.667 42.47 180.367 42.5867 180.367 42.58L180.387 44.71C180.387 44.81 180.327 44.8733 180.207 44.9C180.047 44.9333 179.94 44.8433 179.887 44.63C179.84 44.41 179.807 44.0667 179.787 43.6C179.774 43.18 179.754 42.8833 179.727 42.71C179.54 42.8033 179.38 42.8467 179.247 42.84C179.22 42.7867 179.207 42.6767 179.207 42.51C179.26 42.49 179.324 42.4667 179.397 42.44C179.477 42.4133 179.534 42.3833 179.567 42.35C179.607 42.31 179.627 42.2533 179.627 42.18C179.627 41.8467 179.594 41.3333 179.527 40.64C179.454 40.0133 179.417 39.4967 179.417 39.09L179.427 38.63C179.447 38.5833 179.47 38.5533 179.497 38.54C179.53 38.5267 179.574 38.52 179.627 38.52C179.74 38.52 179.797 38.5567 179.797 38.63L180.207 42.15C180.394 42.1033 180.704 41.9833 181.137 41.79C181.57 41.5967 182.237 41.2833 183.137 40.85L183.177 38.63C183.177 38.37 183.274 38.24 183.467 38.24C183.547 38.24 183.6 38.27 183.627 38.33C183.66 38.39 183.67 38.49 183.657 38.63L183.647 40.36C183.647 40.9467 183.68 41.71 183.747 42.65C183.767 42.8367 183.784 43.0167 183.797 43.19C183.817 43.3567 183.834 43.5167 183.847 43.67C183.887 44.0833 183.914 44.3467 183.927 44.46C183.947 44.5667 183.977 44.6633 184.017 44.75C183.984 44.8833 183.894 44.9667 183.747 45ZM185.588 45.01C185.434 45.01 185.311 44.7867 185.218 44.34C185.124 43.8867 185.064 43.4967 185.038 43.17C185.011 42.8433 184.974 42.3267 184.928 41.62C184.921 41.5067 184.918 41.36 184.918 41.18C184.918 40.9533 184.934 40.7967 184.968 40.71C185.008 40.6233 185.071 40.58 185.158 40.58C185.231 40.58 185.288 40.5967 185.328 40.63C185.374 40.6567 185.414 40.7033 185.448 40.77L185.438 41.17C185.438 41.5967 185.458 42 185.498 42.38C185.544 42.76 185.614 43.27 185.708 43.91C185.761 44.19 185.798 44.42 185.818 44.6C185.831 44.6933 185.814 44.7867 185.768 44.88C185.721 44.9667 185.661 45.01 185.588 45.01ZM185.338 39.51C185.191 39.51 185.081 39.4533 185.008 39.34C184.941 39.2267 184.908 39.0867 184.908 38.92C184.908 38.8467 184.911 38.7933 184.918 38.76C184.911 38.6533 184.971 38.6 185.098 38.6C185.191 38.6 185.284 38.6233 185.378 38.67C185.478 38.71 185.508 38.74 185.468 38.76C185.534 38.9333 185.568 39.07 185.568 39.17C185.568 39.2567 185.548 39.3267 185.508 39.38C185.468 39.4267 185.411 39.47 185.338 39.51ZM188.434 45.01C188.241 45.01 187.988 44.7233 187.674 44.15C187.368 43.57 187.011 42.8367 186.604 41.95L186.314 41.33C186.314 41.2633 186.354 41.2 186.434 41.14C186.514 41.0733 186.634 41.0433 186.794 41.05C186.834 41.1233 186.961 41.3933 187.174 41.86C187.428 42.4067 187.641 42.8567 187.814 43.21C187.994 43.5567 188.211 43.93 188.464 44.33C188.578 43.9167 188.704 43.53 188.844 43.17C188.991 42.8033 189.208 42.2867 189.494 41.62L189.644 41.27C189.684 41.19 189.761 41.15 189.874 41.15C189.954 41.15 190.024 41.17 190.084 41.21C190.144 41.25 190.174 41.3067 190.174 41.38C190.174 41.4467 190.141 41.5167 190.074 41.59C190.028 41.6367 189.961 41.7733 189.874 42C189.788 42.22 189.698 42.4667 189.604 42.74C189.351 43.46 189.131 44.0233 188.944 44.43C188.758 44.83 188.588 45.0233 188.434 45.01ZM193.235 45C192.808 45 192.415 44.9167 192.055 44.75C191.695 44.5833 191.408 44.3467 191.195 44.04C190.981 43.7333 190.875 43.38 190.875 42.98C190.875 42.5333 190.958 42.1167 191.125 41.73C191.291 41.3367 191.535 41.0233 191.855 40.79C192.181 40.55 192.561 40.43 192.995 40.43C193.448 40.43 193.791 40.5767 194.025 40.87C194.258 41.1567 194.368 41.52 194.355 41.96C194.355 42.3533 194.198 42.6533 193.885 42.86C193.578 43.0667 193.185 43.17 192.705 43.17C192.631 43.17 192.521 43.1633 192.375 43.15C192.135 43.1233 191.965 43.0867 191.865 43.04C191.765 42.9933 191.715 42.9 191.715 42.76C191.715 42.7133 191.728 42.68 191.755 42.66C191.781 42.6333 191.835 42.62 191.915 42.62C192.001 42.62 192.155 42.64 192.375 42.68C192.588 42.72 192.778 42.74 192.945 42.74C193.558 42.74 193.865 42.4733 193.865 41.94C193.865 41.62 193.805 41.3667 193.685 41.18C193.571 40.9933 193.368 40.9 193.075 40.9C192.755 40.9 192.468 40.9867 192.215 41.16C191.961 41.3267 191.765 41.5467 191.625 41.82C191.491 42.0933 191.425 42.3833 191.425 42.69C191.425 43.2167 191.571 43.65 191.865 43.99C192.158 44.3233 192.611 44.49 193.225 44.49C193.298 44.49 193.421 44.4833 193.595 44.47C193.668 44.4633 193.758 44.4433 193.865 44.41C193.971 44.3767 194.048 44.3533 194.095 44.34C194.381 44.24 194.591 44.19 194.725 44.19C194.825 44.19 194.901 44.2167 194.955 44.27C194.788 44.5233 194.538 44.71 194.205 44.83C193.878 44.9433 193.555 45 193.235 45ZM195.407 43.82C195.5 43.7467 195.59 43.71 195.677 43.71C195.757 43.71 195.834 43.7333 195.907 43.78C195.987 43.8267 196.067 43.8867 196.147 43.96C196.227 44.0267 196.29 44.0767 196.337 44.11C196.49 44.23 196.7 44.3233 196.967 44.39C197.234 44.4567 197.517 44.49 197.817 44.49C198.157 44.49 198.46 44.4267 198.727 44.3C199 44.1667 199.137 43.99 199.137 43.77C199.137 43.57 199.064 43.4133 198.917 43.3C198.77 43.18 198.594 43.0933 198.387 43.04C198.18 42.9867 197.907 42.9367 197.567 42.89C197.107 42.8367 196.74 42.77 196.467 42.69C196.2 42.61 195.987 42.48 195.827 42.3C195.667 42.1133 195.587 41.8533 195.587 41.52C195.587 41.16 195.757 40.8933 196.097 40.72C196.437 40.54 196.827 40.45 197.267 40.45C197.667 40.45 198.007 40.5367 198.287 40.71C198.574 40.8767 198.72 41.1167 198.727 41.43C198.74 41.61 198.714 41.7533 198.647 41.86C198.58 41.96 198.5 42.01 198.407 42.01C198.354 42.01 198.307 41.99 198.267 41.95C198.234 41.91 198.217 41.8567 198.217 41.79C198.217 41.6833 198.254 41.5667 198.327 41.44C198.294 41.28 198.184 41.16 197.997 41.08C197.817 41 197.6 40.96 197.347 40.96C196.974 40.96 196.677 41.03 196.457 41.17C196.237 41.3033 196.127 41.4633 196.127 41.65C196.127 41.85 196.207 42.0033 196.367 42.11C196.527 42.2167 196.72 42.2933 196.947 42.34C197.18 42.38 197.51 42.42 197.937 42.46C198.29 42.5067 198.577 42.5633 198.797 42.63C199.024 42.6967 199.214 42.8267 199.367 43.02C199.52 43.2067 199.597 43.4767 199.597 43.83C199.597 44.1967 199.427 44.4867 199.087 44.7C198.747 44.9067 198.34 45.01 197.867 45.01C197.26 45.01 196.717 44.9067 196.237 44.7C195.764 44.4933 195.487 44.2 195.407 43.82ZM201.085 45C200.965 45 200.858 44.9467 200.765 44.84C200.678 44.7267 200.608 44.5967 200.555 44.45C200.508 44.2967 200.485 44.1667 200.485 44.06C200.485 43.8467 200.515 43.67 200.575 43.53C200.642 43.3833 200.718 43.28 200.805 43.22C200.892 43.1533 200.972 43.12 201.045 43.12C201.278 43.12 201.465 43.2333 201.605 43.46C201.745 43.68 201.815 43.9167 201.815 44.17C201.815 44.27 201.775 44.3867 201.695 44.52C201.622 44.6533 201.528 44.7667 201.415 44.86C201.302 44.9533 201.192 45 201.085 45Z" fill="#F2B617"/>
<path d="M270.378 35.5152C270.532 35.3396 270.78 35.1522 270.911 35.1054L271.23 35C271.266 35 271.526 35.1405 271.822 35.3279C272.213 35.5855 272.426 35.8314 272.639 36.2998C272.817 36.6863 272.947 37.2483 272.982 37.7519C273.03 38.4662 272.994 38.6536 272.722 39.2391C272.556 39.6138 272.213 40.1173 271.964 40.3632C271.727 40.6091 271.207 40.9956 270.816 41.2181C270.425 41.4523 269.81 41.7099 269.454 41.8153C269.099 41.9207 268.531 42.0612 268.211 42.1315C267.88 42.2017 266.743 42.3422 265.666 42.4359C264.589 42.5413 262.908 42.7053 261.937 42.7989C260.954 42.8926 259.392 43.0097 258.445 43.0683C257.498 43.1151 256.065 43.2322 255.248 43.3025C254.431 43.3844 253.283 43.525 252.703 43.6187C252.111 43.724 251.081 43.8411 250.394 43.9114C249.708 43.97 249.045 44.0519 248.915 44.0871C248.784 44.1222 247.956 44.2276 247.08 44.3213C246.204 44.4032 244.972 44.532 244.357 44.6023C243.741 44.6726 243.149 44.7545 243.055 44.8014C242.96 44.8365 242.261 44.9302 241.516 45.0122C240.77 45.0941 239.539 45.2464 238.793 45.34C238.047 45.4454 236.899 45.6094 236.247 45.7031C235.596 45.8084 234.791 45.9373 234.472 45.9958C234.14 46.0544 233.11 46.2417 232.163 46.4057C231.216 46.5813 230.103 46.7687 229.677 46.8389C229.251 46.8975 228.375 47.0497 227.724 47.1785C227.073 47.3073 225.948 47.5533 225.238 47.7172C224.515 47.8811 223.485 48.1153 222.929 48.2442C222.373 48.373 221.733 48.5252 221.508 48.5837C221.284 48.654 220.538 48.8531 219.851 49.0522C219.164 49.2512 218.336 49.4854 218.016 49.5908C217.685 49.6845 217.258 49.8016 217.069 49.8484C216.868 49.907 215.802 50.2817 214.701 50.6916C213.588 51.1131 212.097 51.7572 211.387 52.1319C210.534 52.5769 209.836 52.8579 209.374 52.9399C208.853 53.0219 208.522 53.0219 208.155 52.9282C207.87 52.8579 207.492 52.6355 207.279 52.413C207.077 52.2022 206.793 51.8509 206.651 51.6284C206.509 51.3942 206.308 50.9492 206.189 50.633C206.071 50.2817 206 49.6728 206 49.1107C206 48.4784 206.083 47.9046 206.249 47.3542C206.391 46.8975 206.698 46.2417 206.935 45.8904C207.172 45.5391 207.598 45.0004 207.894 44.6726C208.19 44.3564 208.853 43.8177 209.374 43.4898C209.895 43.1502 210.582 42.7638 210.913 42.6233C211.233 42.4711 211.718 42.2603 211.978 42.1432C212.239 42.0144 212.926 41.7802 213.517 41.6162C214.098 41.4523 215.163 41.2064 215.885 41.0893C216.595 40.9605 217.981 40.7848 218.963 40.6911C219.934 40.5857 221.615 40.4803 222.692 40.4335C223.77 40.3984 224.906 40.3515 225.238 40.3281C225.557 40.3164 226.871 40.2578 228.138 40.211C229.405 40.1759 232.234 40.0588 234.412 39.9534C236.591 39.8597 239.018 39.7543 239.799 39.7309C240.58 39.7192 242.072 39.6606 243.114 39.6255C244.156 39.5904 245.41 39.5084 245.896 39.4498C246.381 39.3796 247.423 39.3093 248.204 39.2859C248.986 39.2625 250.501 39.1805 251.578 39.0985C252.656 39.0283 254.218 38.8878 255.071 38.7941C255.911 38.7004 256.87 38.6301 257.202 38.6301C257.521 38.6301 257.983 38.5716 258.208 38.513C258.433 38.4428 259.309 38.314 260.161 38.2086C261.002 38.1149 262.15 37.9627 262.707 37.869C263.263 37.787 264.115 37.6582 264.601 37.5762C265.086 37.4943 265.702 37.3537 265.962 37.2718C266.223 37.1781 266.566 37.1078 266.732 37.1078C266.897 37.1078 267.43 36.9673 267.915 36.8034C268.401 36.6277 269.099 36.3467 269.454 36.1593C269.81 35.9837 270.236 35.6909 270.378 35.5152Z" fill="#F2B617"/>
<path d="M43.861 36.7851L45.0345 32.4056C45.1067 32.1359 45.3731 31.978 45.6347 32.0755C46.2085 32.2895 47.321 32.7903 49.0552 33.918C50.615 34.9323 51.613 35.6973 52.1776 36.1624C52.4685 36.4021 52.3739 36.7916 52.003 36.8588C51.3665 36.9741 50.2368 37.138 48.2762 37.3268C45.6674 37.578 44.5284 37.3814 44.0654 37.2287C43.8787 37.1672 43.8101 36.9749 43.861 36.7851Z" fill="black"/>
<path d="M27.2177 9.78462C28.3206 13.9007 26.2747 18.0252 22.648 18.9969C19.0213 19.9687 15.1873 17.4197 14.0844 13.3037C12.9815 9.18763 15.0274 5.06315 18.6541 4.09138C22.2807 3.11962 26.1148 5.66857 27.2177 9.78462Z" fill="url(#paint0_linear_36_6)"/>
<path d="M36.8089 14.8327C34.9209 18.8959 30.7259 20.9519 27.4391 19.4247C24.1523 17.8975 23.0183 13.3655 24.9063 9.30222C26.7942 5.23893 30.9892 3.18301 34.276 4.7102C37.5628 6.23738 38.6968 10.7694 36.8089 14.8327Z" fill="url(#paint1_linear_36_6)"/>
<path fill-rule="evenodd" clip-rule="evenodd" d="M23.8318 52.8871C10.6698 52.8871 0 45.5612 0 33.5482L23.8318 52.8871ZM23.8318 52.8871C36.9938 52.8871 47.6638 45.5612 47.6638 33.5482C47.6638 21.5353 36.6901 12.3546 23.5281 12.3546C11.1454 12.3546 1.23732 20.4803 0.107447 31.4455C0.0363586 32.1453 6.47089e-07 32.847 0 33.5482" fill="url(#paint2_linear_36_6)"/>
<path d="M31.1163 13.4122C36.1849 17.6335 39.516 24.7703 39.516 32.8636C39.516 40.7591 36.3457 47.7443 31.4847 52.0002C29.0828 52.5841 26.5089 52.8871 23.832 52.8871C23.6622 52.8871 23.4929 52.8859 23.3241 52.8835C28.9016 48.7844 32.6363 41.2872 32.6363 32.7177C32.6363 24.0116 28.7816 16.4123 23.0559 12.3585C23.213 12.3559 23.3704 12.3546 23.5283 12.3546C26.1694 12.3546 28.7224 12.7242 31.1163 13.4122Z" fill="black"/>
<path d="M41.1293 18.9823C43.6566 22.8901 45.1903 28.0254 45.1903 33.6502C45.1903 38.3849 44.1035 42.7729 42.2522 46.3738C40.299 48.2437 37.8951 49.743 35.171 50.8296C39.1739 46.8409 41.7702 40.4266 41.7702 33.1935C41.7702 25.1819 38.5849 18.1748 33.8311 14.3558C36.5836 15.486 39.0591 17.059 41.1293 18.9823Z" fill="black"/>
<path d="M12.4419 32.0789C12.4419 32.9565 13.4658 34.1476 15.3256 34.1476C17.1853 34.1476 18.2093 33.061 18.2301 32.0371" stroke="black" stroke-width="2.58721" stroke-linecap="round"/>
<path d="M10.368 29.8083C10.368 30.7153 9.63275 31.4505 8.72575 31.4505C7.81876 31.4505 7.0835 30.7153 7.0835 29.8083C7.0835 28.9013 7.81876 28.166 8.72575 28.166C9.63275 28.166 10.368 28.9013 10.368 29.8083Z" fill="black"/>
<path d="M9.79637 29.0267C9.79637 29.2617 9.60583 29.4523 9.3708 29.4523C9.13576 29.4523 8.94522 29.2617 8.94522 29.0267C8.94522 28.7916 9.13576 28.6011 9.3708 28.6011C9.60583 28.6011 9.79637 28.7916 9.79637 29.0267Z" fill="white"/>
<path d="M23.6024 29.8083C23.6024 30.7153 22.8671 31.4505 21.9601 31.4505C21.0531 31.4505 20.3179 30.7153 20.3179 29.8083C20.3179 28.9013 21.0531 28.166 21.9601 28.166C22.8671 28.166 23.6024 28.9013 23.6024 29.8083Z" fill="black"/>
<path d="M23.0346 29.0267C23.0346 29.2617 22.8441 29.4523 22.6091 29.4523C22.374 29.4523 22.1835 29.2617 22.1835 29.0267C22.1835 28.7916 22.374 28.6011 22.6091 28.6011C22.8441 28.6011 23.0346 28.7916 23.0346 29.0267Z" fill="white"/>
<path d="M12.0568 12.9049C11.2523 12.0093 10.0265 11.5285 8.88523 11.3472C7.91215 11.1927 6.91733 11.2434 6.2208 11.506C6.06199 11.3927 5.86765 11.3261 5.65776 11.3261C5.12149 11.3261 4.68677 11.7609 4.68677 12.2971C4.68677 12.8334 5.12149 13.2681 5.65776 13.2681C6.19402 13.2681 6.62875 12.8334 6.62875 12.2971C6.62875 12.267 6.62737 12.2372 6.62469 12.2078C7.13825 12.0489 7.91635 11.9986 8.76049 12.1327C9.79914 12.2976 10.8264 12.7252 11.4652 13.4363C12.6737 14.7817 12.8203 15.9871 12.9215 16.8189C12.9334 16.9168 12.9446 17.0095 12.9569 17.0966C12.9876 17.314 13.1888 17.4654 13.4062 17.4348C13.6237 17.4041 13.7751 17.2029 13.7444 16.9855C13.733 16.9051 13.7224 16.8167 13.711 16.721C13.6089 15.8702 13.4375 14.4419 12.0568 12.9049Z" fill="black"/>
<path d="M19.6533 8.67723C19.7077 8.54782 19.7378 8.40564 19.7378 8.25642C19.7378 7.65693 19.2519 7.17094 18.6524 7.17094C18.0529 7.17094 17.5669 7.65693 17.5669 8.25642C17.5669 8.85591 18.0529 9.3419 18.6524 9.3419C18.8086 9.3419 18.9572 9.30887 19.0915 9.24942C19.81 10.1675 20.2799 10.8854 20.6217 12.2716C20.8066 13.0215 20.8377 13.903 20.7965 14.6942C20.7554 15.4853 20.644 16.154 20.5618 16.4679C20.5062 16.6804 20.6333 16.8977 20.8458 16.9533C21.0582 17.0089 21.2755 16.8817 21.3311 16.6693C21.4303 16.2903 21.5475 15.5658 21.5907 14.7355C21.6339 13.9052 21.6049 12.9371 21.3939 12.0812C21.0035 10.4982 20.4398 9.67547 19.6533 8.67723Z" fill="black"/>
<defs>
<linearGradient id="paint0_linear_36_6" x1="18.7137" y1="6.20441" x2="21.7978" y2="13.4006" gradientUnits="userSpaceOnUse">
<stop stop-color="#E7F9FF"/>
<stop offset="1" stop-color="#AEECFF"/>
<stop offset="1" stop-color="#9EE8FF"/>
</linearGradient>
<linearGradient id="paint1_linear_36_6" x1="32.6874" y1="7.53608" x2="33.3161" y2="15.4344" gradientUnits="userSpaceOnUse">
<stop stop-color="#E7F9FF"/>
<stop offset="1" stop-color="#AEECFF"/>
<stop offset="1" stop-color="#85E2FF"/>
</linearGradient>
<linearGradient id="paint2_linear_36_6" x1="14.9095" y1="13.2483" x2="39.4797" y2="54.8681" gradientUnits="userSpaceOnUse">
<stop offset="0.614583" stop-color="#F2B617"/>
<stop offset="1" stop-color="#E3B708"/>
</linearGradient>
</defs>
</svg>
